<!--?xml version="1.0" standalone="no"?-->
              <svg id="sw-js-blob-svg" viewBox="0 0 100 100" xmlns="http://www.w3.org/2000/svg" version="1.1">
                    <defs> 
                        <linearGradient id="sw-gradient" x1="0" x2="1" y1="1" y2="0">
                            <stop id="stop1" stop-color="rgba(248, 117, 55, 1)" offset="0%"></stop>
                            <stop id="stop2" stop-color="rgba(251, 168, 31, 1)" offset="100%"></stop>
                        </linearGradient>
                    </defs>
                <path fill="url(#sw-gradient)" d="M15.8,-27.1C20.4,-24.8,24.1,-20.4,27.4,-15.5C30.7,-10.7,33.8,-5.3,35.4,0.9C37,7.2,37.2,14.4,34,19.4C30.7,24.4,24,27.1,17.7,30.4C11.5,33.8,5.8,37.6,0.3,37.1C-5.2,36.6,-10.3,31.7,-16.4,28.3C-22.4,24.9,-29.3,22.9,-32.9,18.4C-36.5,14,-36.7,7,-33.9,1.6C-31.1,-3.7,-25.3,-7.5,-22.5,-13.4C-19.8,-19.2,-20,-27.2,-16.8,-30.3C-13.6,-33.4,-6.8,-31.6,-0.6,-30.6C5.6,-29.6,11.2,-29.3,15.8,-27.1Z" width="100%" height="100%" transform="translate(50 50)" stroke-width="0" style="transition: all 0.3s ease 0s;" stroke="url(#sw-gradient)"></path>
              </svg>